<mxfile host="app.diagrams.net" modified="2023-04-03T12:03:26.756Z" agent="Mozilla/5.0 (Windows NT 10.0; Win64; x64) AppleWebKit/537.36 (KHTML, like Gecko) Chrome/111.0.0.0 Safari/537.36" etag="7hEl-dB9_zyeCiTzjeOb" version="21.1.2" type="github">
  <diagram name="Trang-1" id="4eLhcjMsQsYxYSbteJQc">
    <mxGraphModel dx="1050" dy="573" grid="1" gridSize="10" guides="1" tooltips="1" connect="1" arrows="1" fold="1" page="1" pageScale="1" pageWidth="827" pageHeight="1169" math="0" shadow="0">
      <root>
        <mxCell id="0" />
        <mxCell id="1" parent="0" />
        <mxCell id="XUtxWT6-hty6zaH7yEdC-29" value="&lt;ul&gt;&lt;li&gt;ID *&lt;/li&gt;&lt;li&gt;UserName&lt;/li&gt;&lt;li&gt;Password&lt;/li&gt;&lt;li&gt;Name&lt;/li&gt;&lt;li&gt;Email&lt;/li&gt;&lt;li&gt;phone&lt;/li&gt;&lt;/ul&gt;" style="text;strokeColor=none;fillColor=none;html=1;whiteSpace=wrap;verticalAlign=middle;overflow=hidden;" vertex="1" parent="1">
          <mxGeometry x="650" y="420" width="120" height="110" as="geometry" />
        </mxCell>
        <mxCell id="XUtxWT6-hty6zaH7yEdC-30" value="&lt;ul&gt;&lt;li&gt;OrderCode *&lt;/li&gt;&lt;li&gt;Total Price&lt;/li&gt;&lt;li&gt;OrderDate&lt;/li&gt;&lt;li&gt;Total Product&lt;/li&gt;&lt;li&gt;Status&lt;/li&gt;&lt;li&gt;ShippingDate&lt;/li&gt;&lt;/ul&gt;" style="text;strokeColor=none;fillColor=none;html=1;whiteSpace=wrap;verticalAlign=middle;overflow=hidden;" vertex="1" parent="1">
          <mxGeometry x="10" y="405" width="120" height="130" as="geometry" />
        </mxCell>
        <mxCell id="XUtxWT6-hty6zaH7yEdC-31" value="&lt;ul&gt;&lt;li&gt;ProductID*&lt;/li&gt;&lt;li&gt;Name SP&lt;/li&gt;&lt;li&gt;Color&lt;/li&gt;&lt;li&gt;Image&lt;/li&gt;&lt;li&gt;Price&lt;/li&gt;&lt;li&gt;statusSP&lt;/li&gt;&lt;/ul&gt;" style="text;strokeColor=none;fillColor=none;html=1;whiteSpace=wrap;verticalAlign=middle;overflow=hidden;" vertex="1" parent="1">
          <mxGeometry x="50" y="95" width="100" height="130" as="geometry" />
        </mxCell>
        <mxCell id="XUtxWT6-hty6zaH7yEdC-32" value="&lt;ul&gt;&lt;li&gt;ID*&lt;/li&gt;&lt;li&gt;Name Cate&lt;/li&gt;&lt;/ul&gt;" style="text;strokeColor=none;fillColor=none;html=1;whiteSpace=wrap;verticalAlign=middle;overflow=hidden;" vertex="1" parent="1">
          <mxGeometry x="640" y="145" width="120" height="80" as="geometry" />
        </mxCell>
        <mxCell id="XUtxWT6-hty6zaH7yEdC-33" value="&lt;ul&gt;&lt;li&gt;IDGroup*&lt;/li&gt;&lt;li&gt;NameGroup&lt;/li&gt;&lt;li&gt;Desc&lt;/li&gt;&lt;li&gt;Technical specs.&lt;br&gt;&lt;/li&gt;&lt;/ul&gt;" style="text;strokeColor=none;fillColor=none;html=1;whiteSpace=wrap;verticalAlign=middle;overflow=hidden;" vertex="1" parent="1">
          <mxGeometry x="630" y="280" width="140" height="80" as="geometry" />
        </mxCell>
        <mxCell id="XUtxWT6-hty6zaH7yEdC-35" value="&lt;ul&gt;&lt;li&gt;ID*&lt;/li&gt;&lt;li&gt;TypeName&lt;/li&gt;&lt;/ul&gt;" style="text;strokeColor=none;fillColor=none;html=1;whiteSpace=wrap;verticalAlign=middle;overflow=hidden;" vertex="1" parent="1">
          <mxGeometry x="650" y="30" width="100" height="80" as="geometry" />
        </mxCell>
        <mxCell id="XUtxWT6-hty6zaH7yEdC-36" value="have" style="rhombus;whiteSpace=wrap;html=1;" vertex="1" parent="1">
          <mxGeometry x="373.5" y="442.5" width="80" height="65" as="geometry" />
        </mxCell>
        <mxCell id="XUtxWT6-hty6zaH7yEdC-37" value="Of" style="rhombus;whiteSpace=wrap;html=1;" vertex="1" parent="1">
          <mxGeometry x="180" y="280" width="80" height="50" as="geometry" />
        </mxCell>
        <mxCell id="XUtxWT6-hty6zaH7yEdC-39" value="" style="endArrow=none;html=1;rounded=0;exitX=0.5;exitY=0;exitDx=0;exitDy=0;" edge="1" parent="1" source="XUtxWT6-hty6zaH7yEdC-37">
          <mxGeometry width="50" height="50" relative="1" as="geometry">
            <mxPoint x="170" y="250" as="sourcePoint" />
            <mxPoint x="220" y="200" as="targetPoint" />
          </mxGeometry>
        </mxCell>
        <mxCell id="XUtxWT6-hty6zaH7yEdC-40" value="" style="endArrow=none;html=1;rounded=0;exitX=0.5;exitY=0;exitDx=0;exitDy=0;" edge="1" parent="1">
          <mxGeometry width="50" height="50" relative="1" as="geometry">
            <mxPoint x="220" y="435" as="sourcePoint" />
            <mxPoint x="220" y="330" as="targetPoint" />
          </mxGeometry>
        </mxCell>
        <mxCell id="XUtxWT6-hty6zaH7yEdC-43" value="" style="endArrow=none;html=1;rounded=0;" edge="1" parent="1">
          <mxGeometry width="50" height="50" relative="1" as="geometry">
            <mxPoint x="283.5" y="474.5" as="sourcePoint" />
            <mxPoint x="373.5" y="474.5" as="targetPoint" />
          </mxGeometry>
        </mxCell>
        <mxCell id="XUtxWT6-hty6zaH7yEdC-44" value="" style="endArrow=none;html=1;rounded=0;entryX=0;entryY=0.5;entryDx=0;entryDy=0;exitX=1;exitY=0.5;exitDx=0;exitDy=0;" edge="1" parent="1" source="XUtxWT6-hty6zaH7yEdC-36">
          <mxGeometry width="50" height="50" relative="1" as="geometry">
            <mxPoint x="453.5" y="470" as="sourcePoint" />
            <mxPoint x="540" y="475" as="targetPoint" />
          </mxGeometry>
        </mxCell>
        <mxCell id="XUtxWT6-hty6zaH7yEdC-45" value="" style="endArrow=none;html=1;rounded=0;exitX=0.5;exitY=0;exitDx=0;exitDy=0;" edge="1" parent="1">
          <mxGeometry width="50" height="50" relative="1" as="geometry">
            <mxPoint x="220" y="120" as="sourcePoint" />
            <mxPoint x="364" y="70" as="targetPoint" />
            <Array as="points">
              <mxPoint x="220" y="70" />
            </Array>
          </mxGeometry>
        </mxCell>
        <mxCell id="XUtxWT6-hty6zaH7yEdC-46" value="" style="endArrow=none;html=1;rounded=0;" edge="1" parent="1">
          <mxGeometry width="50" height="50" relative="1" as="geometry">
            <mxPoint x="280" y="485" as="sourcePoint" />
            <mxPoint x="280" y="465" as="targetPoint" />
            <Array as="points">
              <mxPoint x="290" y="475" />
            </Array>
          </mxGeometry>
        </mxCell>
        <mxCell id="XUtxWT6-hty6zaH7yEdC-47" value="have" style="rhombus;whiteSpace=wrap;html=1;" vertex="1" parent="1">
          <mxGeometry x="364" y="50" width="50" height="40" as="geometry" />
        </mxCell>
        <mxCell id="XUtxWT6-hty6zaH7yEdC-48" value="have" style="rhombus;whiteSpace=wrap;html=1;" vertex="1" parent="1">
          <mxGeometry x="360" y="167.5" width="50" height="40" as="geometry" />
        </mxCell>
        <mxCell id="XUtxWT6-hty6zaH7yEdC-49" value="have" style="rhombus;whiteSpace=wrap;html=1;" vertex="1" parent="1">
          <mxGeometry x="360" y="305" width="50" height="40" as="geometry" />
        </mxCell>
        <mxCell id="XUtxWT6-hty6zaH7yEdC-50" value="" style="endArrow=none;html=1;rounded=0;entryX=0;entryY=0.5;entryDx=0;entryDy=0;" edge="1" parent="1">
          <mxGeometry width="50" height="50" relative="1" as="geometry">
            <mxPoint x="414" y="70" as="sourcePoint" />
            <mxPoint x="520" y="70" as="targetPoint" />
          </mxGeometry>
        </mxCell>
        <mxCell id="XUtxWT6-hty6zaH7yEdC-51" value="" style="endArrow=none;html=1;rounded=0;exitX=1;exitY=1;exitDx=0;exitDy=0;entryX=0;entryY=0.5;entryDx=0;entryDy=0;" edge="1" parent="1" target="XUtxWT6-hty6zaH7yEdC-48">
          <mxGeometry width="50" height="50" relative="1" as="geometry">
            <mxPoint x="262.42640687119285" y="188.2842712474619" as="sourcePoint" />
            <mxPoint x="360" y="190" as="targetPoint" />
            <Array as="points" />
          </mxGeometry>
        </mxCell>
        <mxCell id="XUtxWT6-hty6zaH7yEdC-52" value="" style="endArrow=none;html=1;rounded=0;exitX=0.69;exitY=1.003;exitDx=0;exitDy=0;exitPerimeter=0;entryX=0;entryY=0.5;entryDx=0;entryDy=0;" edge="1" parent="1" target="XUtxWT6-hty6zaH7yEdC-49">
          <mxGeometry width="50" height="50" relative="1" as="geometry">
            <mxPoint x="242.80000000000007" y="200.24" as="sourcePoint" />
            <mxPoint x="360" y="320" as="targetPoint" />
            <Array as="points">
              <mxPoint x="310" y="270" />
            </Array>
          </mxGeometry>
        </mxCell>
        <mxCell id="XUtxWT6-hty6zaH7yEdC-53" value="" style="endArrow=none;html=1;rounded=0;entryX=0;entryY=0.5;entryDx=0;entryDy=0;exitX=1;exitY=0.5;exitDx=0;exitDy=0;exitPerimeter=0;" edge="1" parent="1" source="XUtxWT6-hty6zaH7yEdC-49">
          <mxGeometry width="50" height="50" relative="1" as="geometry">
            <mxPoint x="410" y="330" as="sourcePoint" />
            <mxPoint x="530.0000000000002" y="325" as="targetPoint" />
          </mxGeometry>
        </mxCell>
        <mxCell id="XUtxWT6-hty6zaH7yEdC-55" value="" style="endArrow=none;html=1;rounded=0;exitX=1;exitY=0.5;exitDx=0;exitDy=0;entryX=0;entryY=0.5;entryDx=0;entryDy=0;" edge="1" parent="1" source="XUtxWT6-hty6zaH7yEdC-48">
          <mxGeometry width="50" height="50" relative="1" as="geometry">
            <mxPoint x="480" y="240" as="sourcePoint" />
            <mxPoint x="530.0000000000005" y="187.5" as="targetPoint" />
          </mxGeometry>
        </mxCell>
        <mxCell id="XUtxWT6-hty6zaH7yEdC-59" value="" style="endArrow=none;html=1;rounded=0;" edge="1" parent="1">
          <mxGeometry width="50" height="50" relative="1" as="geometry">
            <mxPoint x="270" y="200" as="sourcePoint" />
            <mxPoint x="270" y="180" as="targetPoint" />
            <Array as="points">
              <mxPoint x="280" y="187.5" />
            </Array>
          </mxGeometry>
        </mxCell>
        <mxCell id="XUtxWT6-hty6zaH7yEdC-60" value="" style="endArrow=none;html=1;rounded=0;" edge="1" parent="1">
          <mxGeometry width="50" height="50" relative="1" as="geometry">
            <mxPoint x="210" y="120" as="sourcePoint" />
            <mxPoint x="230" y="120" as="targetPoint" />
            <Array as="points">
              <mxPoint x="220" y="110" />
            </Array>
          </mxGeometry>
        </mxCell>
        <mxCell id="XUtxWT6-hty6zaH7yEdC-61" value="" style="endArrow=none;html=1;rounded=0;exitX=0.746;exitY=1.039;exitDx=0;exitDy=0;exitPerimeter=0;" edge="1" parent="1" source="XUtxWT6-hty6zaH7yEdC-87">
          <mxGeometry width="50" height="50" relative="1" as="geometry">
            <mxPoint x="240" y="210" as="sourcePoint" />
            <mxPoint x="254" y="200" as="targetPoint" />
            <Array as="points">
              <mxPoint x="254" y="210" />
            </Array>
          </mxGeometry>
        </mxCell>
        <mxCell id="XUtxWT6-hty6zaH7yEdC-63" value="" style="endArrow=none;html=1;rounded=0;" edge="1" parent="1">
          <mxGeometry width="50" height="50" relative="1" as="geometry">
            <mxPoint x="280" y="197.5" as="sourcePoint" />
            <mxPoint x="280" y="177.5" as="targetPoint" />
          </mxGeometry>
        </mxCell>
        <mxCell id="XUtxWT6-hty6zaH7yEdC-64" value="" style="endArrow=none;html=1;rounded=0;exitX=0.6;exitY=1.015;exitDx=0;exitDy=0;exitPerimeter=0;" edge="1" parent="1">
          <mxGeometry width="50" height="50" relative="1" as="geometry">
            <mxPoint x="232" y="201.20000000000005" as="sourcePoint" />
            <mxPoint x="210" y="200" as="targetPoint" />
            <Array as="points">
              <mxPoint x="220" y="220" />
            </Array>
          </mxGeometry>
        </mxCell>
        <mxCell id="XUtxWT6-hty6zaH7yEdC-65" value="" style="endArrow=none;html=1;rounded=0;" edge="1" parent="1">
          <mxGeometry width="50" height="50" relative="1" as="geometry">
            <mxPoint x="210" y="435" as="sourcePoint" />
            <mxPoint x="230" y="435" as="targetPoint" />
            <Array as="points">
              <mxPoint x="220" y="425" />
            </Array>
          </mxGeometry>
        </mxCell>
        <mxCell id="XUtxWT6-hty6zaH7yEdC-68" value="" style="endArrow=none;html=1;rounded=0;" edge="1" parent="1">
          <mxGeometry width="50" height="50" relative="1" as="geometry">
            <mxPoint x="210" y="420" as="sourcePoint" />
            <mxPoint x="230" y="420" as="targetPoint" />
          </mxGeometry>
        </mxCell>
        <mxCell id="XUtxWT6-hty6zaH7yEdC-69" value="" style="endArrow=none;html=1;rounded=0;" edge="1" parent="1">
          <mxGeometry width="50" height="50" relative="1" as="geometry">
            <mxPoint x="210" y="225" as="sourcePoint" />
            <mxPoint x="230" y="225" as="targetPoint" />
          </mxGeometry>
        </mxCell>
        <mxCell id="XUtxWT6-hty6zaH7yEdC-70" value="" style="endArrow=none;html=1;rounded=0;" edge="1" parent="1">
          <mxGeometry width="50" height="50" relative="1" as="geometry">
            <mxPoint x="510" y="180" as="sourcePoint" />
            <mxPoint x="510" y="200" as="targetPoint" />
          </mxGeometry>
        </mxCell>
        <mxCell id="XUtxWT6-hty6zaH7yEdC-72" value="" style="endArrow=none;html=1;rounded=0;" edge="1" parent="1">
          <mxGeometry width="50" height="50" relative="1" as="geometry">
            <mxPoint x="520" y="315" as="sourcePoint" />
            <mxPoint x="520" y="335" as="targetPoint" />
          </mxGeometry>
        </mxCell>
        <mxCell id="XUtxWT6-hty6zaH7yEdC-73" value="" style="endArrow=none;html=1;rounded=0;" edge="1" parent="1">
          <mxGeometry width="50" height="50" relative="1" as="geometry">
            <mxPoint x="300" y="465" as="sourcePoint" />
            <mxPoint x="300" y="485" as="targetPoint" />
          </mxGeometry>
        </mxCell>
        <mxCell id="XUtxWT6-hty6zaH7yEdC-74" value="" style="endArrow=none;html=1;rounded=0;" edge="1" parent="1">
          <mxGeometry width="50" height="50" relative="1" as="geometry">
            <mxPoint x="520" y="465" as="sourcePoint" />
            <mxPoint x="520" y="485" as="targetPoint" />
          </mxGeometry>
        </mxCell>
        <mxCell id="XUtxWT6-hty6zaH7yEdC-75" value="" style="endArrow=none;html=1;rounded=0;" edge="1" parent="1">
          <mxGeometry width="50" height="50" relative="1" as="geometry">
            <mxPoint x="530" y="465" as="sourcePoint" />
            <mxPoint x="530" y="485" as="targetPoint" />
          </mxGeometry>
        </mxCell>
        <mxCell id="XUtxWT6-hty6zaH7yEdC-77" value="" style="endArrow=none;html=1;rounded=0;" edge="1" parent="1">
          <mxGeometry width="50" height="50" relative="1" as="geometry">
            <mxPoint x="520" y="200" as="sourcePoint" />
            <mxPoint x="520" y="180" as="targetPoint" />
          </mxGeometry>
        </mxCell>
        <mxCell id="XUtxWT6-hty6zaH7yEdC-78" value="" style="endArrow=none;html=1;rounded=0;" edge="1" parent="1">
          <mxGeometry width="50" height="50" relative="1" as="geometry">
            <mxPoint x="250" y="220" as="sourcePoint" />
            <mxPoint x="260" y="210" as="targetPoint" />
          </mxGeometry>
        </mxCell>
        <mxCell id="XUtxWT6-hty6zaH7yEdC-79" value="" style="endArrow=none;html=1;rounded=0;" edge="1" parent="1">
          <mxGeometry width="50" height="50" relative="1" as="geometry">
            <mxPoint x="510.5" y="335" as="sourcePoint" />
            <mxPoint x="510" y="315" as="targetPoint" />
          </mxGeometry>
        </mxCell>
        <mxCell id="XUtxWT6-hty6zaH7yEdC-80" value="" style="endArrow=none;html=1;rounded=0;" edge="1" parent="1">
          <mxGeometry width="50" height="50" relative="1" as="geometry">
            <mxPoint x="500" y="80" as="sourcePoint" />
            <mxPoint x="500" y="60" as="targetPoint" />
          </mxGeometry>
        </mxCell>
        <mxCell id="XUtxWT6-hty6zaH7yEdC-81" value="" style="endArrow=none;html=1;rounded=0;" edge="1" parent="1">
          <mxGeometry width="50" height="50" relative="1" as="geometry">
            <mxPoint x="227.5" y="110" as="sourcePoint" />
            <mxPoint x="212.5" y="110" as="targetPoint" />
          </mxGeometry>
        </mxCell>
        <mxCell id="XUtxWT6-hty6zaH7yEdC-82" value="" style="endArrow=none;html=1;rounded=0;" edge="1" parent="1">
          <mxGeometry width="50" height="50" relative="1" as="geometry">
            <mxPoint x="490" y="60" as="sourcePoint" />
            <mxPoint x="490" y="80" as="targetPoint" />
          </mxGeometry>
        </mxCell>
        <mxCell id="XUtxWT6-hty6zaH7yEdC-83" value="" style="endArrow=none;html=1;rounded=0;entryX=0;entryY=0.5;entryDx=0;entryDy=0;" edge="1" parent="1" target="XUtxWT6-hty6zaH7yEdC-37">
          <mxGeometry width="50" height="50" relative="1" as="geometry">
            <mxPoint x="130" y="255" as="sourcePoint" />
            <mxPoint x="180" y="232.5" as="targetPoint" />
          </mxGeometry>
        </mxCell>
        <mxCell id="XUtxWT6-hty6zaH7yEdC-84" value="" style="endArrow=none;html=1;rounded=0;" edge="1" parent="1">
          <mxGeometry width="50" height="50" relative="1" as="geometry">
            <mxPoint x="152" y="346.25" as="sourcePoint" />
            <mxPoint x="180" y="305" as="targetPoint" />
          </mxGeometry>
        </mxCell>
        <mxCell id="XUtxWT6-hty6zaH7yEdC-86" value="Order" style="rounded=0;whiteSpace=wrap;html=1;" vertex="1" parent="1">
          <mxGeometry x="160" y="440" width="120" height="60" as="geometry" />
        </mxCell>
        <mxCell id="XUtxWT6-hty6zaH7yEdC-87" value="Product" style="rounded=0;whiteSpace=wrap;html=1;" vertex="1" parent="1">
          <mxGeometry x="150" y="120" width="120" height="80" as="geometry" />
        </mxCell>
        <mxCell id="XUtxWT6-hty6zaH7yEdC-88" value="Type" style="rounded=0;whiteSpace=wrap;html=1;" vertex="1" parent="1">
          <mxGeometry x="520" y="40" width="120" height="60" as="geometry" />
        </mxCell>
        <mxCell id="XUtxWT6-hty6zaH7yEdC-89" value="Category" style="rounded=0;whiteSpace=wrap;html=1;" vertex="1" parent="1">
          <mxGeometry x="530" y="157.5" width="120" height="60" as="geometry" />
        </mxCell>
        <mxCell id="XUtxWT6-hty6zaH7yEdC-90" value="GroupSP" style="rounded=0;whiteSpace=wrap;html=1;" vertex="1" parent="1">
          <mxGeometry x="530" y="295" width="120" height="60" as="geometry" />
        </mxCell>
        <mxCell id="XUtxWT6-hty6zaH7yEdC-91" value="User" style="rounded=0;whiteSpace=wrap;html=1;" vertex="1" parent="1">
          <mxGeometry x="540" y="442.5" width="120" height="60" as="geometry" />
        </mxCell>
        <mxCell id="XUtxWT6-hty6zaH7yEdC-92" value="Qty" style="ellipse;whiteSpace=wrap;html=1;" vertex="1" parent="1">
          <mxGeometry x="86" y="255" width="70" height="50" as="geometry" />
        </mxCell>
        <mxCell id="XUtxWT6-hty6zaH7yEdC-94" value="PriceOfOrder" style="ellipse;whiteSpace=wrap;html=1;" vertex="1" parent="1">
          <mxGeometry x="112" y="346.25" width="76" height="50" as="geometry" />
        </mxCell>
        <mxCell id="XUtxWT6-hty6zaH7yEdC-95" value="M" style="text;html=1;align=center;verticalAlign=middle;resizable=0;points=[];autosize=1;strokeColor=none;fillColor=none;" vertex="1" parent="1">
          <mxGeometry x="240" y="400" width="30" height="30" as="geometry" />
        </mxCell>
        <mxCell id="XUtxWT6-hty6zaH7yEdC-96" value="N" style="text;html=1;align=center;verticalAlign=middle;resizable=0;points=[];autosize=1;strokeColor=none;fillColor=none;" vertex="1" parent="1">
          <mxGeometry x="165" y="215" width="30" height="30" as="geometry" />
        </mxCell>
        <mxCell id="XUtxWT6-hty6zaH7yEdC-97" value="1" style="text;html=1;align=center;verticalAlign=middle;resizable=0;points=[];autosize=1;strokeColor=none;fillColor=none;" vertex="1" parent="1">
          <mxGeometry x="490" y="280" width="30" height="30" as="geometry" />
        </mxCell>
        <mxCell id="XUtxWT6-hty6zaH7yEdC-98" value="N" style="text;html=1;align=center;verticalAlign=middle;resizable=0;points=[];autosize=1;strokeColor=none;fillColor=none;" vertex="1" parent="1">
          <mxGeometry x="270" y="200" width="30" height="30" as="geometry" />
        </mxCell>
        <mxCell id="XUtxWT6-hty6zaH7yEdC-100" value="N" style="text;html=1;align=center;verticalAlign=middle;resizable=0;points=[];autosize=1;strokeColor=none;fillColor=none;" vertex="1" parent="1">
          <mxGeometry x="285" y="425" width="30" height="30" as="geometry" />
        </mxCell>
        <mxCell id="XUtxWT6-hty6zaH7yEdC-101" value="N" style="text;html=1;align=center;verticalAlign=middle;resizable=0;points=[];autosize=1;strokeColor=none;fillColor=none;" vertex="1" parent="1">
          <mxGeometry x="275" y="155" width="30" height="30" as="geometry" />
        </mxCell>
        <mxCell id="XUtxWT6-hty6zaH7yEdC-102" value="N" style="text;html=1;align=center;verticalAlign=middle;resizable=0;points=[];autosize=1;strokeColor=none;fillColor=none;" vertex="1" parent="1">
          <mxGeometry x="235" y="85" width="30" height="30" as="geometry" />
        </mxCell>
      </root>
    </mxGraphModel>
  </diagram>
</mxfile>
